<?xml version="1.0" encoding="utf-8"?>
<!-- Generator: Adobe Illustrator 17.1.0, SVG Export Plug-In . SVG Version: 6.00 Build 0)  -->
<!DOCTYPE svg PUBLIC "-//W3C//DTD SVG 1.1//EN" "http://www.w3.org/Graphics/SVG/1.1/DTD/svg11.dtd">
<svg version="1.1" id="Layer_1" xmlns="http://www.w3.org/2000/svg" xmlns:xlink="http://www.w3.org/1999/xlink" x="0px" y="0px"
	 viewBox="0 0 1008 136" enable-background="new 0 0 1008 136" xml:space="preserve">
<g>
	<g>
		<g>
			<linearGradient id="SVGID_1_" gradientUnits="userSpaceOnUse" x1="666.9871" y1="12.5376" x2="666.9871" y2="128.2725">
				<stop  offset="0" style="stop-color:#505050"/>
				<stop  offset="1" style="stop-color:#000000"/>
			</linearGradient>
			<path fill="url(#SVGID_1_)" d="M419.1,123.2c-4.8,2.5-15.4,5-28.7,5c-35.3,0-56.8-22.1-56.8-56c0-36.7,25.4-58.8,59.4-58.8
				c13.4,0,22.9,2.8,27.1,5l-4.5,16.2c-5.3-2.3-12.5-4.3-21.8-4.3c-22.6,0-39,14.2-39,40.9c0,24.4,14.4,40.1,38.8,40.1
				c8.3,0,16.8-1.7,22.1-4.1L419.1,123.2z"/>
			<linearGradient id="SVGID_2_" gradientUnits="userSpaceOnUse" x1="666.9871" y1="12.5376" x2="666.9871" y2="128.2725">
				<stop  offset="0" style="stop-color:#505050"/>
				<stop  offset="1" style="stop-color:#000000"/>
			</linearGradient>
			<path fill="url(#SVGID_2_)" d="M435.1,72c0-10.9-0.2-18.7-0.7-25.9h17.7l0.7,15.4h0.7c4-11.4,13.4-17.2,22-17.2
				c2,0,3.1,0.2,4.8,0.5v19.2c-1.7-0.3-3.5-0.7-5.9-0.7c-9.7,0-16.3,6.3-18.2,15.4c-0.3,1.8-0.7,4-0.7,6.3v41.6h-20.3V72z"/>
			<linearGradient id="SVGID_3_" gradientUnits="userSpaceOnUse" x1="666.9871" y1="12.5376" x2="666.9871" y2="128.2725">
				<stop  offset="0" style="stop-color:#505050"/>
				<stop  offset="1" style="stop-color:#000000"/>
			</linearGradient>
			<path fill="url(#SVGID_3_)" d="M506.8,92c0.5,14.5,11.9,20.8,24.8,20.8c9.4,0,16.2-1.3,22.3-3.6l3,14c-6.9,2.8-16.5,5-28.1,5
				c-26.1,0-41.4-16-41.4-40.6c0-22.3,13.5-43.3,39.3-43.3c26.1,0,34.7,21.5,34.7,39.1c0,3.8-0.3,6.8-0.7,8.6H506.8z M542.1,77.8
				c0.2-7.4-3.1-19.6-16.7-19.6c-12.5,0-17.8,11.4-18.7,19.6H542.1z"/>
			<linearGradient id="SVGID_4_" gradientUnits="userSpaceOnUse" x1="666.9871" y1="12.5376" x2="666.9871" y2="128.2725">
				<stop  offset="0" style="stop-color:#505050"/>
				<stop  offset="1" style="stop-color:#000000"/>
			</linearGradient>
			<path fill="url(#SVGID_4_)" d="M622.8,126.5l-1.3-8.9H621c-5,6.3-13.4,10.7-23.8,10.7c-16.2,0-25.3-11.7-25.3-23.9
				c0-20.3,18-30.5,47.7-30.4v-1.3c0-5.3-2.1-14-16.3-14c-7.9,0-16.2,2.5-21.6,5.9l-4-13.2c5.9-3.6,16.3-7.1,29.1-7.1
				c25.8,0,33.2,16.3,33.2,33.8v29.1c0,7.3,0.3,14.4,1.2,19.3H622.8z M620.2,87.2c-14.4-0.3-28.1,2.8-28.1,15
				c0,7.9,5.1,11.6,11.6,11.6c8.1,0,14-5.3,15.8-11.1c0.5-1.5,0.7-3.1,0.7-4.5V87.2z"/>
			<linearGradient id="SVGID_5_" gradientUnits="userSpaceOnUse" x1="666.9871" y1="12.5376" x2="666.9871" y2="128.2725">
				<stop  offset="0" style="stop-color:#505050"/>
				<stop  offset="1" style="stop-color:#000000"/>
			</linearGradient>
			<path fill="url(#SVGID_5_)" d="M683.7,23.1v22.9h19.3v15.2h-19.3v35.5c0,9.7,2.6,14.9,10.4,14.9c3.5,0,6.1-0.5,7.9-1l0.3,15.5
				c-3,1.2-8.3,2-14.7,2c-7.4,0-13.7-2.5-17.5-6.6c-4.3-4.6-6.3-11.9-6.3-22.5V61.2h-11.6V46.1h11.6V27.9L683.7,23.1z"/>
			<linearGradient id="SVGID_6_" gradientUnits="userSpaceOnUse" x1="666.9871" y1="12.5376" x2="666.9871" y2="128.2725">
				<stop  offset="0" style="stop-color:#505050"/>
				<stop  offset="1" style="stop-color:#000000"/>
			</linearGradient>
			<path fill="url(#SVGID_6_)" d="M740,23.6c0,6.1-4.5,10.9-11.6,10.9c-6.8,0-11.2-4.8-11.2-10.9c0-6.3,4.6-11.1,11.4-11.1
				C735.6,12.5,739.9,17.3,740,23.6z M718.4,126.5V46.1h20.5v80.4H718.4z"/>
			<linearGradient id="SVGID_7_" gradientUnits="userSpaceOnUse" x1="666.9871" y1="12.5376" x2="666.9871" y2="128.2725">
				<stop  offset="0" style="stop-color:#505050"/>
				<stop  offset="1" style="stop-color:#000000"/>
			</linearGradient>
			<path fill="url(#SVGID_7_)" d="M837.1,85.5c0,29.6-20.8,42.8-41.3,42.8c-22.8,0-40.3-15.7-40.3-41.4c0-26.4,17.3-42.6,41.6-42.6
				C821.1,44.2,837.1,61.1,837.1,85.5z M776.5,86.3c0,15.5,7.6,27.2,20,27.2c11.6,0,19.6-11.4,19.6-27.6c0-12.5-5.6-26.9-19.5-26.9
				C782.3,59.1,776.5,73,776.5,86.3z"/>
			<linearGradient id="SVGID_8_" gradientUnits="userSpaceOnUse" x1="666.9871" y1="12.5376" x2="666.9871" y2="128.2725">
				<stop  offset="0" style="stop-color:#505050"/>
				<stop  offset="1" style="stop-color:#000000"/>
			</linearGradient>
			<path fill="url(#SVGID_8_)" d="M853.8,70c0-9.2-0.2-17-0.7-23.9H871l1,12.1h0.5c3.5-6.3,12.2-13.9,25.6-13.9
				c14,0,28.6,9.1,28.6,34.5v47.7h-20.3V81.1c0-11.6-4.3-20.3-15.4-20.3c-8.1,0-13.7,5.8-15.8,11.9c-0.7,1.8-0.8,4.3-0.8,6.6v47.2
				h-20.5V70z"/>
			<linearGradient id="SVGID_9_" gradientUnits="userSpaceOnUse" x1="666.9871" y1="12.5376" x2="666.9871" y2="128.2725">
				<stop  offset="0" style="stop-color:#505050"/>
				<stop  offset="1" style="stop-color:#000000"/>
			</linearGradient>
			<path fill="url(#SVGID_9_)" d="M947.2,107.8c4.6,2.8,13.4,5.8,20.6,5.8c8.9,0,12.9-3.6,12.9-8.9c0-5.4-3.3-8.3-13.2-11.7
				c-15.7-5.4-22.3-14-22.1-23.4c0-14.2,11.7-25.3,30.4-25.3c8.9,0,16.7,2.3,21.3,4.8l-4,14.4c-3.5-2-9.9-4.6-17-4.6
				c-7.3,0-11.2,3.5-11.2,8.4c0,5.1,3.8,7.6,14,11.2c14.5,5.3,21.3,12.7,21.5,24.6c0,14.5-11.4,25.1-32.7,25.1
				c-9.7,0-18.5-2.3-24.4-5.6L947.2,107.8z"/>
		</g>
	</g>
	<g>
		<g>
			<linearGradient id="SVGID_10_" gradientUnits="userSpaceOnUse" x1="167.0061" y1="9.2354" x2="167.0061" y2="128.2725">
				<stop  offset="0" style="stop-color:#4089FF"/>
				<stop  offset="1" style="stop-color:#0062FF"/>
			</linearGradient>
			<path fill="url(#SVGID_10_)" d="M12.7,70c0-9.2-0.2-17-0.7-23.9h17.5l0.8,11.9h0.5c4-6.3,11.2-13.7,24.8-13.7
				c10.6,0,18.8,5.9,22.3,14.9h0.3c2.8-4.5,6.1-7.8,9.9-10.1c4.5-3.1,9.6-4.8,16.2-4.8c13.4,0,26.9,9.1,26.9,34.8v47.4h-19.8V82
				c0-13.4-4.6-21.3-14.4-21.3c-6.9,0-12.1,5-14.2,10.7c-0.5,2-1,4.5-1,6.8v48.2H62.1V79.9c0-11.2-4.5-19.2-13.9-19.2
				c-7.6,0-12.7,5.9-14.5,11.6c-0.8,2-1.2,4.3-1.2,6.6v47.5H12.7V70z"/>
			<linearGradient id="SVGID_11_" gradientUnits="userSpaceOnUse" x1="167.0061" y1="9.2354" x2="167.0061" y2="128.2725">
				<stop  offset="0" style="stop-color:#4089FF"/>
				<stop  offset="1" style="stop-color:#0062FF"/>
			</linearGradient>
			<path fill="url(#SVGID_11_)" d="M152.1,126.5c0.3-5.4,0.7-14.4,0.7-22.6V9.2H173v47.9h0.3c5-7.8,13.7-12.9,25.8-12.9
				c19.6,0,33.7,16.3,33.5,40.8c0,28.9-18.3,43.3-36.5,43.3c-10.4,0-19.6-4-25.4-13.9h-0.3l-1,12.1H152.1z M173,93.3
				c0,1.7,0.2,3.3,0.5,4.8c2.1,8.1,9.2,14.2,18,14.2c12.7,0,20.5-10.2,20.5-26.4c0-14.2-6.8-25.8-20.3-25.8c-8.3,0-15.7,5.9-18,14.9
				c-0.3,1.5-0.7,3.3-0.7,5.3V93.3z"/>
			<linearGradient id="SVGID_12_" gradientUnits="userSpaceOnUse" x1="167.0061" y1="9.2354" x2="167.0061" y2="128.2725">
				<stop  offset="0" style="stop-color:#4089FF"/>
				<stop  offset="1" style="stop-color:#0062FF"/>
			</linearGradient>
			<path fill="url(#SVGID_12_)" d="M321.3,102.4c0,9.6,0.3,17.5,0.7,24.1h-17.8l-1-12.2h-0.3c-3.5,5.8-11.4,14-25.8,14
				c-14.7,0-28.1-8.8-28.1-35V46.1h20.3v43.8c0,13.4,4.3,22,15,22c8.1,0,13.4-5.8,15.5-10.9c0.7-1.8,1.2-4,1.2-6.3V46.1h20.3V102.4z
				"/>
		</g>
	</g>
</g>
<g>
</g>
<g>
</g>
<g>
</g>
<g>
</g>
<g>
</g>
<g>
</g>
</svg>
